# xmcd
#
# Track frame offsets:
#	150
#	12017
#	24456
#	34638
#	46190
#	57506
#	70156
#	81078
#	91362
#	103745
#	115045
#	125314
#	136008
#	148071
#	159700
#	168804
#	179492
#	191126
#	201876
#	214222
#	226927
#	238693
#	251556
#	263867
#	275526
#
# Disc length: 3803 seconds
#
# Revision: 1
# Processed by: cddbd v1.5.2PL0 Copyright (c) Steve Scherf et al.
# Submitted via: audiograbber 1.83.01
#
DISCID=5e0ed919
DTITLE=Various Artist - The Cleethorpes Northern Soul Weekender
DYEAR=2012
DGENRE=Soul
TTITLE0=Jesse Davis - Gonna Hang On In There Girl
TTITLE1=Marva Holiday - It's Written All Over My Face
TTITLE2=Little Ann - Who Are You Trying To Fool
TTITLE3=Frank Dell - He Broke Your Game Wide Open
TTITLE4=Darrow Fletcher - My Young Misery
TTITLE5=Lou Courtney - Me And You Doin' The Boogaloo
TTITLE6=Tommy Hunt - The Pretty Part Of You
TTITLE7=Doris Troy - Face Up To The Truth
TTITLE8=The Serenaders and Sidney Barnes - Two Lovers Make One Fool
TTITLE9=The Diplomats - Help Me
TTITLE10=Kendra Spotswood - Jive Guy
TTITLE11=Maxine Brown - Let Me Give You My Lovin'
TTITLE12=Barbara Lewis - The Stars
TTITLE13=The Belles - Words Can't Explain
TTITLE14=Betty LaVette - I Feel Good (All Over)
TTITLE15=The Charmaines - I Idolize You
TTITLE16=Spencer Wiggins - Walking Out On You
TTITLE17=Melvin Davis - Wedding Bells
TTITLE18=H. B. Barnum - I'm A Man
TTITLE19=Dean Parrish - Bricks, Broken Bottles And Sticks
TTITLE20=Hoagy Lands - The Next In Line
TTITLE21=Tony Middleton and The Highjackers - Drifting
TTITLE22=Willie Tee - I'm Only A Man
TTITLE23=Mary Love - I'm In Your Hands
TTITLE24=Bettye Swann - Lonely Love
EXTD=
EXTT0=
EXTT1=
EXTT2=
EXTT3=
EXTT4=
EXTT5=
EXTT6=
EXTT7=
EXTT8=
EXTT9=
EXTT10=
EXTT11=
EXTT12=
EXTT13=
EXTT14=
EXTT15=
EXTT16=
EXTT17=
EXTT18=
EXTT19=
EXTT20=
EXTT21=
EXTT22=
EXTT23=
EXTT24=
PLAYORDER=
